<?xml version="1.0" encoding="utf-8"?>
<!-- Generator: Adobe Illustrator 16.0.0, SVG Export Plug-In . SVG Version: 6.00 Build 0)  -->
<!DOCTYPE svg PUBLIC "-//W3C//DTD SVG 1.1//EN" "http://www.w3.org/Graphics/SVG/1.1/DTD/svg11.dtd">
<svg version="1.1" id="Layer_1" xmlns="http://www.w3.org/2000/svg" xmlns:xlink="http://www.w3.org/1999/xlink" x="0px" y="0px"
	 width="294.803px" height="72.283px" viewBox="0 0 294.803 72.283" enable-background="new 0 0 294.803 72.283"
	 xml:space="preserve">
<g>
	<path fill="#E2001A" d="M63.311,40.776c-1.77,0-3.206-1.439-3.206-3.208v-9.617c0-1.77,1.437-3.205,3.206-3.205h6.575
		C65.113,10.768,51.875,0.708,36.28,0.708c-19.617,0-35.519,15.9-35.519,35.516c0,15.164,9.502,28.095,22.871,33.189v-4.99
		c0-1.771,1.433-3.207,3.203-3.207h9.619c1.768,0,3.203,1.438,3.203,3.207v7.152c0.745-0.068,1.481-0.162,2.209-0.277v-6.875
		c0-1.771,1.439-3.207,3.208-3.207h9.616c1.756,0,3.188,1.418,3.203,3.178c2.065-1.582,3.948-3.391,5.618-5.381h-0.203
		c-1.77,0-3.206-1.436-3.206-3.205V46.19c0-1.771,1.437-3.205,3.206-3.205h7.83c0.143-0.73,0.256-1.465,0.353-2.207L63.311,40.776
		L63.311,40.776z M39.659,55.808c0,1.771-1.437,3.205-3.203,3.205h-9.619c-1.771,0-3.203-1.436-3.203-3.205V46.19
		c0-1.771,1.433-3.205,3.203-3.205h9.619c1.768,0,3.203,1.434,3.203,3.205V55.808L39.659,55.808z M39.659,37.569
		c0,1.768-1.437,3.208-3.203,3.208h-9.619c-1.771,0-3.203-1.439-3.203-3.208v-9.617c0-1.77,1.433-3.205,3.203-3.205h9.619
		c1.768,0,3.203,1.436,3.203,3.205V37.569L39.659,37.569z M57.897,55.808c0,1.771-1.438,3.205-3.205,3.205h-9.616
		c-1.769,0-3.208-1.436-3.208-3.205V46.19c0-1.771,1.439-3.205,3.208-3.205h9.617c1.767,0,3.204,1.434,3.204,3.205V55.808
		L57.897,55.808z M57.897,37.569c0,1.768-1.438,3.208-3.205,3.208h-9.616c-1.769,0-3.208-1.439-3.208-3.208v-9.617
		c0-1.77,1.439-3.205,3.208-3.205h9.617c1.767,0,3.204,1.436,3.204,3.205V37.569L57.897,37.569z"/>
	<path fill="#E2001A" d="M84.373,25.202l2.842,12.789h0.046l2.7-12.789h7.473v18.908h-4.202V28.288l-0.049-0.054l-4.058,15.875
		h-4.298l-3.774-15.981l-0.046,0.054v15.927h-4.204V25.202H84.373L84.373,25.202z M113.936,25.202H100.78v18.908h13.156v-3.688
		h-8.333v-3.974h7.69v-3.688h-7.69v-3.87h8.333V25.202L113.936,25.202z M130.82,25.202h-15.473v3.688h5.251v15.219h4.824V28.89
		h5.398V25.202L130.82,25.202z M137.412,28.89v4.34h2.219c1.792,0,2.676-0.731,2.676-2.198c0-0.024,0-0.052,0-0.104
		c-0.072-1.358-1.023-2.039-2.842-2.039h-2.053V28.89z M132.587,25.202h7.522c2.03,0,3.75,0.339,5.088,0.993
		c1.358,0.682,2.053,1.934,2.1,3.816c0,0.027,0,0.052,0,0.105c0,1.359-0.403,2.406-1.216,3.164
		c-0.837,0.783-1.887,1.255-3.179,1.438v0.105c1.481,0.054,2.461,0.443,2.913,1.148c0.455,0.706,0.787,1.962,1.003,3.765
		c0.217,1.781,0.502,3.244,0.837,4.369h-5.205c-0.096-0.395-0.219-1.125-0.334-2.197c-0.12-1.07-0.239-2.145-0.381-3.215
		c-0.073-0.813-0.361-1.335-0.838-1.52c-0.479-0.154-1.268-0.262-2.365-0.262h-1.121v7.191h-4.824V25.202L132.587,25.202z
		 M154.724,25.202h-4.824v18.908h4.824V25.202L154.724,25.202z M162.772,28.89v4.81h2.34c1.861,0,2.795-0.813,2.795-2.458
		c0-0.027,0-0.078,0-0.105c-0.051-1.489-1.027-2.246-2.938-2.246L162.772,28.89L162.772,28.89z M157.97,25.202h8.12
		c2.343,0,4.063,0.498,5.159,1.516c1.1,1.021,1.672,2.513,1.694,4.524c0,0.025,0,0.054,0,0.104c0,1.521-0.31,2.747-0.955,3.662
		c-0.646,0.916-1.479,1.518-2.509,1.855c-1.004,0.313-2.146,0.498-3.392,0.498h-3.317v6.748h-4.803L157.97,25.202L157.97,25.202z
		 M179.584,34.668c0,0.078,0,0.183,0,0.261c0,1.621,0.285,2.982,0.859,4.13c0.598,1.205,1.622,1.806,3.057,1.832
		c0.07-0.052,0.119-0.052,0.188-0.052c1.242-0.055,2.148-0.604,2.771-1.646c0.623-1.046,0.934-2.537,0.955-4.474
		c0-4.157-1.313-6.25-3.916-6.25c-0.716,0-1.361,0.186-1.888,0.525c-0.524,0.339-0.935,0.808-1.22,1.411
		c-0.311,0.601-0.5,1.228-0.599,1.882C179.701,32.943,179.63,33.752,179.584,34.668L179.584,34.668z M174.545,34.957
		c0-0.078,0-0.132,0-0.21c0-2.825,0.69-5.179,2.077-7.063c1.409-1.906,3.748-2.876,7.021-2.876c1.601,0.027,3.031,0.366,4.347,0.996
		c1.313,0.628,2.388,1.673,3.196,3.162c0.838,1.491,1.244,3.4,1.27,5.754c0,2.747-0.716,5.021-2.173,6.905
		c-1.458,1.883-3.655,2.854-6.593,2.902c-1.647,0-3.031-0.264-4.203-0.813c-1.172-0.521-2.124-1.254-2.842-2.143
		c-0.717-0.918-1.24-1.938-1.575-3.063C174.761,37.385,174.569,36.211,174.545,34.957L174.545,34.957z M201.646,25.202h-6.731
		v18.908h4.349V29.646h0.049l5.826,14.462h6.637V25.202h-4.299v13.992l-0.047,0.104L201.646,25.202L201.646,25.202z M219.654,40.421
		h2.315c1.146,0,2.077-0.289,2.842-0.861c0.74-0.576,1.313-1.332,1.67-2.275c0.313-0.864,0.479-1.699,0.479-2.563
		c0-0.077,0-0.183,0-0.261c0-1.021-0.238-1.986-0.669-2.852c-0.454-0.862-1.05-1.543-1.789-2.013
		c-0.741-0.472-1.577-0.706-2.485-0.706h-2.361L219.654,40.421L219.654,40.421z M214.83,25.202h7.331
		c6.566,0,9.861,3.215,9.861,9.649c0,0.211,0,0.444-0.022,0.68c-0.119,3.216-1.099,5.438-2.961,6.697
		c-1.862,1.252-4.062,1.882-6.592,1.882h-7.617V25.202L214.83,25.202z M238.948,34.299h4.014c1.526,0,2.698-0.417,3.533-1.228
		c0.837-0.813,1.338-1.831,1.457-3.11c0.023-0.132,0.023-0.262,0.023-0.394c0-1.857-1.172-2.773-3.561-2.773h-3.965L238.948,34.299
		L238.948,34.299z M235.509,44.108l3.68-18.908h5.039c1.838,0,3.227,0.393,4.179,1.177c0.837,0.679,1.241,1.621,1.241,2.852
		c0,0.183,0,0.366-0.023,0.573c-0.143,1.311-0.523,2.407-1.169,3.323c-0.646,0.913-1.528,1.594-2.627,2.065
		c-1.101,0.471-2.339,0.705-3.748,0.705h-3.415l-1.624,8.21L235.509,44.108L235.509,44.108z M253.78,25.202l-3.682,18.908h10.244
		l0.288-1.598h-8.669l3.346-17.311L253.78,25.202L253.78,25.202z M268.513,25.202h-1.525l-2.391,12.265
		c-0.097,0.626-0.166,1.281-0.214,1.988c0.048,1.596,0.501,2.824,1.36,3.713c0.857,0.916,2.146,1.359,3.843,1.359
		c1.433,0,2.699-0.341,3.776-1.021c1.072-0.68,1.931-1.541,2.554-2.563c0.62-1.021,1.05-2.119,1.289-3.271l2.412-12.471h-1.577
		l-2.292,11.845c-0.332,1.857-1.024,3.271-2.078,4.316c-1.073,1.045-2.339,1.57-3.843,1.57c-0.739,0-1.362-0.158-1.938-0.445
		c-0.569-0.314-1.023-0.758-1.338-1.334c-0.335-0.604-0.501-1.334-0.501-2.195c0.071-0.732,0.146-1.336,0.193-1.755L268.513,25.202
		L268.513,25.202z M282.29,39.192h-1.67c-0.023,0.154-0.023,0.313-0.023,0.441c-0.023,0.156-0.05,0.367-0.069,0.604
		c0.021,1.336,0.476,2.404,1.358,3.189c0.838,0.732,1.885,1.1,3.176,1.1c0.097,0,0.168,0,0.266,0
		c1.577-0.078,2.861-0.393,3.893-0.941c1.024-0.574,1.791-1.229,2.269-2.012c0.479-0.762,0.813-1.625,0.979-2.516
		c0.049-0.207,0.049-0.521,0.049-0.938c0-0.996-0.287-1.78-0.812-2.353c-0.55-0.575-1.243-1.021-2.127-1.361
		c-0.334-0.156-0.957-0.418-1.838-0.784c-0.888-0.366-1.528-0.627-1.912-0.861c-0.383-0.232-0.69-0.55-0.954-0.94
		c-0.264-0.396-0.381-0.838-0.381-1.387c0-0.024,0-0.078,0-0.105c0.046-0.861,0.309-1.567,0.786-2.17
		c0.479-0.603,1.05-1.021,1.741-1.307c0.693-0.288,1.389-0.444,2.078-0.471c2.223,0,3.319,0.759,3.319,2.302c0,0.132,0,0.234,0,0.34
		c-0.024,0.078-0.024,0.183-0.049,0.288h1.673v-0.576c0-1.411-0.454-2.405-1.385-3.032c-0.859-0.576-1.958-0.84-3.346-0.84
		c-0.096,0-0.215,0-0.355,0c-1.411,0.054-2.727,0.522-3.895,1.413c-1.193,0.916-1.959,2.119-2.27,3.636
		c-0.07,0.393-0.119,0.731-0.119,1.071c0.024,0.707,0.19,1.336,0.549,1.857c0.525,0.757,1.101,1.279,1.743,1.594
		c0.646,0.343,1.624,0.761,2.962,1.259c0.838,0.313,1.528,0.679,2.053,1.07c0.525,0.418,0.789,1.02,0.789,1.831
		c0,1.357-0.549,2.433-1.623,3.217c-1.026,0.76-2.147,1.125-3.346,1.125c-0.07,0-0.144,0-0.234,0
		c-2.223-0.08-3.32-0.993-3.369-2.746c0.049-0.262,0.072-0.445,0.072-0.574C282.269,39.478,282.269,39.351,282.29,39.192
		L282.29,39.192z"/>
	<path d="M81.243,48.694l1.405,5.729h0.024l1.338-5.729h3.704v8.473H85.63v-7.088l-0.024-0.025l-2.01,7.113h-2.129l-1.87-7.16
		l-0.021,0.025v7.135h-2.085v-8.473H81.243L81.243,48.694z M96.459,46.128l-1.243,1.699h1.406l2.285-1.674v-0.025H96.459
		L96.459,46.128z M99.561,48.694H93.04v8.473h6.521v-1.65H95.43v-1.783h3.812v-1.652H95.43v-1.732h4.131V48.694L99.561,48.694z
		 M106.956,50.349v1.943h1.099c0.89,0,1.326-0.326,1.326-0.98c0-0.016,0-0.023,0-0.051c-0.034-0.607-0.508-0.912-1.409-0.912
		H106.956L106.956,50.349z M104.565,48.694h3.727c1.006,0,1.857,0.152,2.521,0.445c0.675,0.305,1.019,0.865,1.04,1.709
		c0,0.014,0,0.023,0,0.049c0,0.607-0.199,1.076-0.603,1.42c-0.415,0.35-0.936,0.561-1.575,0.645v0.047
		c0.735,0.023,1.218,0.199,1.445,0.516c0.225,0.314,0.391,0.879,0.498,1.688c0.104,0.795,0.247,1.453,0.413,1.957h-2.581
		c-0.046-0.176-0.105-0.504-0.166-0.986c-0.06-0.479-0.117-0.959-0.188-1.438c-0.037-0.361-0.178-0.598-0.415-0.684
		c-0.236-0.066-0.627-0.111-1.172-0.111h-0.554v3.221h-2.391L104.565,48.694L104.565,48.694z M119.202,48.694h-2.392v8.473h6.248
		v-1.65h-3.856V48.694L119.202,48.694z M134.252,48.694h-6.52v8.473h6.52v-1.65h-4.128v-1.783h3.809v-1.652h-3.809v-1.732h4.128
		V48.694L134.252,48.694z M144.595,50.349c0.319,0.162,0.521,0.459,0.58,0.891h2.366c-0.024-1.066-0.403-1.793-1.114-2.168
		c-0.686-0.375-1.621-0.551-2.791-0.551c-0.049,0-0.098,0-0.144,0c-1.608,0.014-2.771,0.469-3.489,1.371
		c-0.698,0.865-1.042,1.861-1.042,2.979c0,0.045,0,0.094,0,0.141c0.024,0.879,0.212,1.64,0.558,2.271
		c0.354,0.645,0.84,1.135,1.478,1.486c0.64,0.354,1.396,0.553,2.288,0.586c0.093,0,0.176,0,0.256,0c1.021,0,2.38-0.16,4.072-0.479
		v-4.51h-4.119v1.641h1.729v1.535c-0.391,0.082-0.803,0.139-1.218,0.162c-0.544-0.013-1.006-0.129-1.375-0.338
		c-0.378-0.213-0.674-0.52-0.862-0.914c-0.203-0.4-0.308-0.847-0.308-1.338c0-0.063,0-0.104,0-0.162
		c0-0.717,0.154-1.336,0.449-1.865c0.319-0.574,0.84-0.877,1.563-0.926c0.067-0.011,0.143-0.011,0.211-0.011
		C144.025,50.147,144.335,50.22,144.595,50.349L144.595,50.349z M159.799,48.694h-7.669v1.65h2.605v6.82h2.39v-6.82h2.674V48.694
		L159.799,48.694z M170.909,48.694h-6.521v8.473h6.521v-1.65h-4.128v-1.783h3.809v-1.652h-3.809v-1.732h4.128V48.694L170.909,48.694
		z M180.944,50.478c0.281,0.225,0.414,0.516,0.428,0.879h2.495v-0.068c0-0.424-0.083-0.797-0.261-1.137
		c-0.178-0.354-0.438-0.646-0.779-0.881c-0.346-0.248-0.771-0.436-1.279-0.563c-0.496-0.129-1.089-0.188-1.763-0.188
		c-1.313,0.016-2.345,0.391-3.063,1.139c-0.687,0.689-1.031,1.795-1.031,3.279c0,0.098,0,0.189,0,0.293
		c0.037,0.855,0.227,1.604,0.547,2.229c0.318,0.633,0.806,1.113,1.441,1.439c0.594,0.309,1.313,0.455,2.166,0.455
		c0.082,0,0.166,0,0.238,0c1.348-0.055,2.305-0.352,2.896-0.863c0.592-0.525,0.888-1.195,0.888-2.018h-2.476
		c-0.033,0.361-0.151,0.646-0.354,0.845c-0.201,0.198-0.545,0.315-1.03,0.362c-0.096,0-0.166,0.013-0.225,0.023
		c-1.063-0.023-1.599-0.924-1.599-2.693c0-0.938,0.129-1.641,0.379-2.123c0.248-0.492,0.697-0.727,1.349-0.727
		C180.328,50.159,180.673,50.267,180.944,50.478L180.944,50.478z M191.19,48.694h-2.392v8.473h2.366v-3.479h2.912v3.479h2.378
		v-8.473h-2.378v3.361h-2.889L191.19,48.694L191.19,48.694z M204.976,48.694h-3.336v8.473h2.152v-6.479h0.023l2.887,6.479h3.288
		v-8.473h-2.129v6.271l-0.021,0.043L204.976,48.694L204.976,48.694z M217.565,48.694h-2.389v8.473h2.389V48.694L217.565,48.694z
		 M225.291,48.694h-2.354v8.473h2.354v-4.51h0.022l2.83,4.51h2.934l-3.193-4.732l2.957-3.738h-2.791l-2.734,3.715h-0.022
		L225.291,48.694L225.291,48.694z M240.794,53.874l-1.089-3.525h-0.049l-1.147,3.525H240.794L240.794,53.874z M238.343,48.694h2.889
		l3.371,8.473h-2.649l-0.578-1.65h-3.467l-0.558,1.65h-2.379L238.343,48.694L238.343,48.694z M259.265,48.694h-2.354v8.473h2.354
		v-4.51h0.023l2.827,4.51h2.935l-3.193-4.732l2.957-3.738h-2.791l-2.732,3.715h-0.023L259.265,48.694L259.265,48.694z
		 M275.711,48.694h-6.057v8.473h2.377V53.97h3.431v-1.65h-3.431v-1.971h3.68V48.694L275.711,48.694z M287.508,48.694h-7.669v1.65
		h2.605v6.82h2.39v-6.82h2.674V48.694L287.508,48.694z M291.033,57.167h2.251v-1.758h-2.251V57.167L291.033,57.167z"/>
</g>
</svg>
